# MagicaVoxel @ Ephtracy

# group
o 

# material
mtllib BeesAndTrees-5.mtl
usemtl palette

# normals
vn -1 0 0
vn 1 0 0
vn 0 0 1
vn 0 0 -1
vn 0 -1 0
vn 0 1 0

# texcoords
vt 0.345703 0.5
vt 0.349609 0.5
vt 0.353516 0.5

# verts
v -1 -0.6 0.2
v -1 -0.6 -0.6
v -1 -0.5 -0.1
v -1 -0.5 -0.6
v -1 -0.4 -0.2
v -1 -0.4 -0.6
v -1 -0.3 0.1
v -1 -0.3 -0.1
v -1 -0.2 0
v -1 -0.2 -0.2
v -1 -0.2 -0.4
v -1 -0.2 -0.6
v -1 -5.96046e-08 0.2
v -1 -5.96046e-08 0.1
v -1 -5.96046e-08 0
v -1 -5.96046e-08 -0.4
v -0.8 -0.6 0.5
v -0.8 -0.6 0.2
v -0.8 -0.6 -0.6
v -0.8 -0.6 -0.7
v -0.8 -0.5 -0.6
v -0.8 -0.4 -0.6
v -0.8 -0.3 0.5
v -0.8 -0.3 0.2
v -0.8 -0.2 0.5
v -0.8 -0.2 0.3
v -0.8 -0.2 -0.4
v -0.8 -0.2 -0.6
v -0.8 -5.96046e-08 0.3
v -0.8 -5.96046e-08 0.2
v -0.8 -5.96046e-08 0.1
v -0.8 -5.96046e-08 0
v -0.8 -5.96046e-08 -0.1
v -0.8 -5.96046e-08 -0.4
v -0.8 0.2 0.5
v -0.8 0.2 0.3
v -0.8 0.2 -0.4
v -0.8 0.2 -0.5
v -0.8 0.2 -0.7
v -0.8 0.4 0.3
v -0.8 0.4 0.1
v -0.8 0.4 -0.1
v -0.8 0.4 -0.4
v -0.8 0.4 -0.5
v -0.8 0.4 -0.7
v -0.6 -0.6 0.8
v -0.6 -0.6 0.5
v -0.6 -0.6 -0.7
v -0.6 -0.6 -0.9
v -0.6 -0.3 0.5
v -0.6 -0.2 0.5
v -0.6 -5.96046e-08 -0.7
v -0.6 -5.96046e-08 -0.9
v -0.6 0.1 0.8
v -0.6 0.1 0.5
v -0.6 0.2 0.5
v -0.6 0.2 0.3
v -0.6 0.4 0.5
v -0.6 0.4 0.3
v -0.6 0.4 0.1
v -0.6 0.4 -0.1
v -0.6 0.4 -0.2
v -0.6 0.6 0.1
v -0.6 0.6 -0.2
v -0.4 0.4 -0.2
v -0.4 0.4 -0.5
v -0.4 0.6 -0.2
v -0.4 0.6 -0.5
v -0.2 0.4 0.3
v -0.2 0.4 0.1
v -0.2 0.6 0.3
v -0.2 0.6 0.1
v -0.4 0.2 -0.5
v -0.4 0.2 -0.7
v -0.4 0.4 -0.5
v -0.4 0.4 -0.7
v -0.1 0.4 -0.4
v -0.1 0.4 -0.5
v -0.1 0.6 -0.4
v -0.1 0.6 -0.5
v 0.3 0.4 -0.1
v 0.3 0.4 -0.2
v 0.3 0.4 -0.4
v 0.3 0.6 -0.1
v 0.3 0.6 -0.4
v 0.4 -0.2 -0.7
v 0.4 -0.2 -0.9
v 0.4 -5.96046e-08 -0.7
v 0.4 -5.96046e-08 -0.9
v 0.5 -0.3 0.8
v 0.5 -0.3 0.5
v 0.5 0.1 0.8
v 0.5 0.1 0.5
v 0.5 0.4 0.3
v 0.5 0.4 -0.1
v 0.5 0.6 0.3
v 0.5 0.6 -0.1
v 0.6 -5.96046e-08 -0.1
v 0.6 -5.96046e-08 -0.5
v 0.6 0.2 0.3
v 0.6 0.2 -0.1
v 0.6 0.2 -0.2
v 0.6 0.2 -0.3
v 0.6 0.2 -0.5
v 0.6 0.3 0.3
v 0.6 0.3 -0.1
v 0.6 0.4 0.3
v 0.6 0.4 -0.2
v 0.6 0.4 -0.3
v 0.6 0.4 -0.5
v 0.8 -0.6 -0.7
v 0.8 -0.6 -0.9
v 0.8 -0.5 -0.8
v 0.8 -0.5 -0.9
v 0.8 -0.4 -0.7
v 0.8 -0.4 -0.8
v 0.8 -0.4 -0.9
v 0.8 -0.2 -0.7
v 0.8 -0.2 -0.9
v 0.8 -5.96046e-08 0.5
v 0.8 -5.96046e-08 0.3
v 0.8 -5.96046e-08 -0.1
v 0.8 -5.96046e-08 -0.5
v 0.8 -5.96046e-08 -0.7
v 0.8 0.2 0.3
v 0.8 0.2 -0.1
v 0.8 0.2 -0.5
v 0.8 0.2 -0.7
v 0.8 0.4 0.5
v 0.8 0.4 0.3
v 1 -0.6 0.2
v 1 -0.6 -0.7
v 1 -0.3 0.5
v 1 -0.3 0.2
v 1 -5.96046e-08 0.5
v 1 -5.96046e-08 -0.7
v 1.1 -0.6 0.8
v 1.1 -0.6 0.2
v 1.1 -0.3 0.8
v 1.1 -0.3 0.2
v -0.6 -0.6 0.8
v -0.6 0.1 0.8
v -0.1 -0.3 0.8
v -0.1 0.1 0.8
v 0.1 -0.5 0.8
v 0.1 -0.3 0.8
v 0.1 -0.1 0.8
v 0.1 0.1 0.8
v 0.3 -0.3 0.8
v 0.3 -0.1 0.8
v 0.5 -0.3 0.8
v 0.5 0.1 0.8
v 0.7 -0.5 0.8
v 0.7 -0.3 0.8
v 1.1 -0.6 0.8
v 1.1 -0.3 0.8
v -0.8 -0.6 0.5
v -0.8 -0.3 0.5
v -0.8 -0.2 0.5
v -0.8 0.2 0.5
v -0.6 -0.6 0.5
v -0.6 -0.3 0.5
v -0.6 -0.2 0.5
v -0.6 0.1 0.5
v -0.6 0.2 0.5
v -0.6 0.4 0.5
v -0.1 0.1 0.5
v 0.1 0.1 0.5
v 0.5 -0.3 0.5
v 0.5 0.1 0.5
v 0.6 0.2 0.5
v 0.6 0.4 0.5
v 0.7 -0.3 0.5
v 0.7 -5.96046e-08 0.5
v 0.7 0.2 0.5
v 0.8 -5.96046e-08 0.5
v 0.8 0.4 0.5
v 1 -0.3 0.5
v 1 -5.96046e-08 0.5
v -0.8 0.2 0.3
v -0.8 0.4 0.3
v -0.6 0.2 0.3
v -0.6 0.4 0.3
v -0.2 0.4 0.3
v -0.2 0.6 0.3
v 0.2 0.4 0.3
v 0.2 0.6 0.3
v 0.3 0.4 0.3
v 0.3 0.6 0.3
v 0.5 0.4 0.3
v 0.5 0.6 0.3
v -1 -0.6 0.2
v -1 -5.96046e-08 0.2
v -0.8 -0.6 0.2
v -0.8 -0.3 0.2
v -0.8 -5.96046e-08 0.2
v -0.6 0.4 0.1
v -0.6 0.6 0.1
v -0.2 0.4 0.1
v -0.2 0.6 0.1
v 0.6 -5.96046e-08 -0.5
v 0.6 0.2 -0.5
v 0.8 -5.96046e-08 -0.5
v 0.8 0.2 -0.5
v 0.6 0.2 0.3
v 0.6 0.3 0.3
v 0.6 0.4 0.3
v 0.8 0.2 0.3
v 0.8 0.4 0.3
v 1 -0.6 0.2
v 1 -0.3 0.2
v 1.1 -0.6 0.2
v 1.1 -0.3 0.2
v 0.3 0.4 -0.1
v 0.3 0.6 -0.1
v 0.5 0.4 -0.1
v 0.5 0.6 -0.1
v 0.6 -5.96046e-08 -0.1
v 0.6 0.2 -0.1
v 0.8 -5.96046e-08 -0.1
v 0.8 0.2 -0.1
v -0.6 0.4 -0.2
v -0.6 0.6 -0.2
v -0.4 0.4 -0.2
v -0.4 0.6 -0.2
v -1 -0.2 -0.4
v -1 -5.96046e-08 -0.4
v -0.8 -0.2 -0.4
v -0.8 -5.96046e-08 -0.4
v -0.1 0.4 -0.4
v -0.1 0.6 -0.4
v 0.1 0.4 -0.4
v 0.1 0.6 -0.4
v 0.3 0.4 -0.4
v 0.3 0.6 -0.4
v -0.4 0.2 -0.5
v -0.4 0.4 -0.5
v -0.4 0.6 -0.5
v -0.1 0.4 -0.5
v -0.1 0.6 -0.5
v 0.3 0.2 -0.5
v 0.3 0.4 -0.5
v 0.4 0.2 -0.5
v 0.4 0.4 -0.5
v 0.6 0.2 -0.5
v 0.6 0.4 -0.5
v -1 -0.6 -0.6
v -1 -0.5 -0.6
v -1 -0.4 -0.6
v -1 -0.2 -0.6
v -0.8 -0.6 -0.6
v -0.8 -0.5 -0.6
v -0.8 -0.4 -0.6
v -0.8 -0.2 -0.6
v -0.8 -0.6 -0.7
v -0.8 0.2 -0.7
v -0.8 0.4 -0.7
v -0.6 -0.6 -0.7
v -0.6 -5.96046e-08 -0.7
v -0.4 0.2 -0.7
v -0.4 0.4 -0.7
v -0.2 -5.96046e-08 -0.7
v 0 -5.96046e-08 -0.7
v 0.4 -0.2 -0.7
v 0.4 -5.96046e-08 -0.7
v 0.8 -0.6 -0.7
v 0.8 -0.4 -0.7
v 0.8 -0.2 -0.7
v 0.8 -5.96046e-08 -0.7
v 0.8 0.2 -0.7
v 1 -0.6 -0.7
v 1 -5.96046e-08 -0.7
v -0.6 -0.6 -0.9
v -0.6 -5.96046e-08 -0.9
v -0.2 -0.3 -0.9
v -0.2 -5.96046e-08 -0.9
v 0 -0.2 -0.9
v 0 -5.96046e-08 -0.9
v 0.1 -0.5 -0.9
v 0.1 -0.3 -0.9
v 0.2 -0.4 -0.9
v 0.2 -0.2 -0.9
v 0.4 -0.2 -0.9
v 0.4 -5.96046e-08 -0.9
v 0.8 -0.6 -0.9
v 0.8 -0.5 -0.9
v 0.8 -0.4 -0.9
v 0.8 -0.2 -0.9
v -0.6 -0.6 0.8
v 1.1 -0.6 0.8
v -0.8 -0.6 0.5
v -0.6 -0.6 0.5
v -1 -0.6 0.2
v -0.8 -0.6 0.2
v 1 -0.6 0.2
v 1.1 -0.6 0.2
v -1 -0.6 -0.6
v -0.8 -0.6 -0.6
v -0.8 -0.6 -0.7
v -0.6 -0.6 -0.7
v 0.8 -0.6 -0.7
v 1 -0.6 -0.7
v -0.6 -0.6 -0.9
v 0.8 -0.6 -0.9
v 0.5 -0.3 0.8
v 0.7 -0.3 0.8
v 1.1 -0.3 0.8
v 0.5 -0.3 0.5
v 0.7 -0.3 0.5
v 1 -0.3 0.5
v 1 -0.3 0.2
v 1.1 -0.3 0.2
v -1 -0.2 -0.4
v -0.8 -0.2 -0.4
v -1 -0.2 -0.6
v -0.8 -0.2 -0.6
v 0.4 -0.2 -0.7
v 0.8 -0.2 -0.7
v 0.4 -0.2 -0.9
v 0.8 -0.2 -0.9
v 0.8 -5.96046e-08 0.5
v 1 -5.96046e-08 0.5
v 0.8 -5.96046e-08 0.3
v -1 -5.96046e-08 0.2
v -0.8 -5.96046e-08 0.2
v -1 -5.96046e-08 0.1
v -0.8 -5.96046e-08 0.1
v -1 -5.96046e-08 0
v -0.8 -5.96046e-08 0
v -0.8 -5.96046e-08 -0.1
v 0.6 -5.96046e-08 -0.1
v 0.8 -5.96046e-08 -0.1
v -1 -5.96046e-08 -0.4
v -0.8 -5.96046e-08 -0.4
v 0.6 -5.96046e-08 -0.5
v 0.8 -5.96046e-08 -0.5
v -0.6 -5.96046e-08 -0.7
v -0.2 -5.96046e-08 -0.7
v 0 -5.96046e-08 -0.7
v 0.4 -5.96046e-08 -0.7
v 0.8 -5.96046e-08 -0.7
v 1 -5.96046e-08 -0.7
v -0.6 -5.96046e-08 -0.9
v -0.2 -5.96046e-08 -0.9
v 0 -5.96046e-08 -0.9
v 0.4 -5.96046e-08 -0.9
v -0.6 0.1 0.8
v -0.1 0.1 0.8
v 0.1 0.1 0.8
v 0.5 0.1 0.8
v -0.6 0.1 0.5
v -0.1 0.1 0.5
v 0.1 0.1 0.5
v 0.5 0.1 0.5
v -0.8 0.2 0.5
v -0.6 0.2 0.5
v -0.8 0.2 0.3
v -0.6 0.2 0.3
v 0.6 0.2 0.3
v 0.8 0.2 0.3
v 0.6 0.2 -0.1
v 0.8 0.2 -0.1
v -0.4 0.2 -0.5
v 0.3 0.2 -0.5
v 0.4 0.2 -0.5
v 0.6 0.2 -0.5
v 0.8 0.2 -0.5
v -0.4 0.2 -0.7
v 0.8 0.2 -0.7
v -0.6 0.4 0.5
v 0.6 0.4 0.5
v 0.8 0.4 0.5
v -0.8 0.4 0.3
v -0.6 0.4 0.3
v -0.2 0.4 0.3
v 0.2 0.4 0.3
v 0.3 0.4 0.3
v 0.5 0.4 0.3
v 0.6 0.4 0.3
v 0.8 0.4 0.3
v -0.8 0.4 0.1
v -0.6 0.4 0.1
v -0.2 0.4 0.1
v -0.8 0.4 -0.1
v -0.6 0.4 -0.1
v 0.3 0.4 -0.1
v 0.5 0.4 -0.1
v -0.7 0.4 -0.2
v -0.6 0.4 -0.2
v -0.4 0.4 -0.2
v 0.3 0.4 -0.2
v 0.6 0.4 -0.2
v 0.4 0.4 -0.3
v 0.6 0.4 -0.3
v -0.8 0.4 -0.4
v -0.7 0.4 -0.4
v -0.1 0.4 -0.4
v 0.1 0.4 -0.4
v 0.3 0.4 -0.4
v -0.8 0.4 -0.5
v -0.6 0.4 -0.5
v -0.4 0.4 -0.5
v -0.1 0.4 -0.5
v 0.3 0.4 -0.5
v 0.4 0.4 -0.5
v 0.6 0.4 -0.5
v -0.8 0.4 -0.7
v -0.4 0.4 -0.7
v -0.2 0.6 0.3
v 0.2 0.6 0.3
v 0.3 0.6 0.3
v 0.5 0.6 0.3
v -0.1 0.6 0.2
v 0.2 0.6 0.2
v -0.6 0.6 0.1
v -0.2 0.6 0.1
v 0.1 0.6 0.1
v 0.3 0.6 0.1
v 0.3 0.6 -0.1
v 0.5 0.6 -0.1
v -0.6 0.6 -0.2
v -0.4 0.6 -0.2
v -0.1 0.6 -0.4
v 0.1 0.6 -0.4
v 0.3 0.6 -0.4
v -0.4 0.6 -0.5
v -0.1 0.6 -0.5

# faces
f 3/1/1 2/1/1 1/1/1
f 4/1/1 2/1/1 3/1/1
f 5/2/1 4/2/1 3/2/1
f 6/2/1 4/2/1 5/2/1
f 7/1/1 3/1/1 1/1/1
f 8/2/1 5/2/1 3/2/1
f 8/1/1 3/1/1 7/1/1
f 9/2/1 8/2/1 7/2/1
f 10/3/1 6/3/1 5/3/1
f 10/2/1 8/2/1 9/2/1
f 10/2/1 5/2/1 8/2/1
f 11/3/1 6/3/1 10/3/1
f 12/3/1 6/3/1 11/3/1
f 13/1/1 7/1/1 1/1/1
f 14/2/1 9/2/1 7/2/1
f 14/1/1 7/1/1 13/1/1
f 15/3/1 10/3/1 9/3/1
f 15/2/1 9/2/1 14/2/1
f 15/3/1 11/3/1 10/3/1
f 16/3/1 11/3/1 15/3/1
f 21/1/1 20/1/1 19/1/1
f 22/1/1 20/1/1 21/1/1
f 23/1/1 18/1/1 17/1/1
f 24/1/1 18/1/1 23/1/1
f 25/2/1 24/2/1 23/2/1
f 26/2/1 24/2/1 25/2/1
f 28/1/1 20/1/1 22/1/1
f 29/3/1 26/3/1 25/3/1
f 29/2/1 24/2/1 26/2/1
f 30/2/1 24/2/1 29/2/1
f 34/1/1 28/1/1 27/1/1
f 35/3/1 29/3/1 25/3/1
f 35/3/1 30/3/1 29/3/1
f 35/3/1 31/3/1 30/3/1
f 36/3/1 31/3/1 35/3/1
f 37/1/1 34/1/1 33/1/1
f 37/1/1 28/1/1 34/1/1
f 38/1/1 28/1/1 37/1/1
f 39/1/1 20/1/1 28/1/1
f 39/1/1 28/1/1 38/1/1
f 40/3/1 31/3/1 36/3/1
f 41/2/1 33/2/1 32/2/1
f 41/3/1 31/3/1 40/3/1
f 41/2/1 32/2/1 31/2/1
f 42/1/1 37/1/1 33/1/1
f 42/2/1 33/2/1 41/2/1
f 43/2/1 38/2/1 37/2/1
f 43/1/1 37/1/1 42/1/1
f 44/3/1 39/3/1 38/3/1
f 44/2/1 38/2/1 43/2/1
f 45/3/1 39/3/1 44/3/1
f 50/1/1 47/1/1 46/1/1
f 51/1/1 50/1/1 46/1/1
f 52/1/1 49/1/1 48/1/1
f 53/1/1 49/1/1 52/1/1
f 54/1/1 51/1/1 46/1/1
f 55/1/1 51/1/1 54/1/1
f 58/1/1 57/1/1 56/1/1
f 59/1/1 57/1/1 58/1/1
f 63/1/1 62/1/1 61/1/1
f 63/1/1 61/1/1 60/1/1
f 64/1/1 62/1/1 63/1/1
f 67/1/1 66/1/1 65/1/1
f 68/1/1 66/1/1 67/1/1
f 71/1/1 70/1/1 69/1/1
f 72/1/1 70/1/1 71/1/1
f 73/3/2 74/3/2 75/3/2
f 75/3/2 74/3/2 76/3/2
f 77/1/2 78/1/2 79/1/2
f 79/1/2 78/1/2 80/1/2
f 81/3/2 82/3/2 84/3/2
f 82/3/2 83/3/2 84/3/2
f 84/3/2 83/3/2 85/3/2
f 86/3/2 87/3/2 88/3/2
f 88/3/2 87/3/2 89/3/2
f 90/3/2 91/3/2 92/3/2
f 92/3/2 91/3/2 93/3/2
f 94/3/2 95/3/2 96/3/2
f 96/3/2 95/3/2 97/3/2
f 98/1/2 99/1/2 101/1/2
f 101/1/2 99/1/2 102/1/2
f 102/1/2 99/1/2 103/1/2
f 103/1/2 99/1/2 104/1/2
f 100/2/2 101/2/2 105/2/2
f 101/1/2 102/1/2 106/1/2
f 105/2/2 101/2/2 106/2/2
f 105/1/2 106/1/2 107/1/2
f 102/2/2 103/2/2 108/2/2
f 107/1/2 106/1/2 108/1/2
f 106/1/2 102/1/2 108/1/2
f 103/3/2 104/3/2 109/3/2
f 108/2/2 103/2/2 109/2/2
f 109/3/2 104/3/2 110/3/2
f 111/1/2 112/1/2 113/1/2
f 113/1/2 112/1/2 114/1/2
f 111/1/2 113/1/2 115/1/2
f 113/2/2 114/2/2 116/2/2
f 115/1/2 113/1/2 116/1/2
f 116/2/2 114/2/2 117/2/2
f 115/3/2 116/3/2 118/3/2
f 116/3/2 117/3/2 118/3/2
f 118/3/2 117/3/2 119/3/2
f 120/2/2 121/2/2 125/2/2
f 121/3/2 122/3/2 125/3/2
f 125/3/2 122/3/2 126/3/2
f 123/1/2 124/1/2 127/1/2
f 127/1/2 124/1/2 128/1/2
f 120/2/2 125/2/2 129/2/2
f 129/2/2 125/2/2 130/2/2
f 131/1/2 132/1/2 134/1/2
f 133/1/2 134/1/2 135/1/2
f 134/1/2 132/1/2 136/1/2
f 135/1/2 134/1/2 136/1/2
f 137/1/2 138/1/2 139/1/2
f 139/1/2 138/1/2 140/1/2
f 143/1/3 142/1/3 141/1/3
f 144/1/3 142/1/3 143/1/3
f 145/1/3 143/1/3 141/1/3
f 146/2/3 144/2/3 143/2/3
f 146/1/3 143/1/3 145/1/3
f 147/2/3 144/2/3 146/2/3
f 148/2/3 144/2/3 147/2/3
f 149/2/3 146/2/3 145/2/3
f 149/2/3 147/2/3 146/2/3
f 150/3/3 148/3/3 147/3/3
f 150/2/3 147/2/3 149/2/3
f 151/2/3 149/2/3 145/2/3
f 151/3/3 150/3/3 149/3/3
f 152/3/3 148/3/3 150/3/3
f 152/3/3 150/3/3 151/3/3
f 153/1/3 145/1/3 141/1/3
f 153/2/3 151/2/3 145/2/3
f 154/2/3 151/2/3 153/2/3
f 155/1/3 153/1/3 141/1/3
f 155/1/3 154/1/3 153/1/3
f 156/1/3 154/1/3 155/1/3
f 161/1/3 158/1/3 157/1/3
f 162/2/3 159/2/3 158/2/3
f 162/1/3 158/1/3 161/1/3
f 163/3/3 160/3/3 159/3/3
f 163/2/3 159/2/3 162/2/3
f 164/3/3 160/3/3 163/3/3
f 165/3/3 160/3/3 164/3/3
f 167/1/3 166/1/3 165/1/3
f 167/1/3 165/1/3 164/1/3
f 168/1/3 166/1/3 167/1/3
f 170/1/3 166/1/3 168/1/3
f 171/1/3 166/1/3 170/1/3
f 171/1/3 170/1/3 169/1/3
f 172/1/3 166/1/3 171/1/3
f 173/1/3 171/1/3 169/1/3
f 174/1/3 171/1/3 173/1/3
f 175/2/3 172/2/3 171/2/3
f 175/1/3 171/1/3 174/1/3
f 176/1/3 174/1/3 173/1/3
f 176/2/3 175/2/3 174/2/3
f 177/2/3 172/2/3 175/2/3
f 177/2/3 175/2/3 176/2/3
f 178/1/3 176/1/3 173/1/3
f 179/1/3 176/1/3 178/1/3
f 182/3/3 181/3/3 180/3/3
f 183/3/3 181/3/3 182/3/3
f 186/1/3 185/1/3 184/1/3
f 187/1/3 185/1/3 186/1/3
f 188/2/3 187/2/3 186/2/3
f 189/2/3 187/2/3 188/2/3
f 190/3/3 189/3/3 188/3/3
f 191/3/3 189/3/3 190/3/3
f 194/1/3 193/1/3 192/1/3
f 195/1/3 193/1/3 194/1/3
f 196/1/3 193/1/3 195/1/3
f 199/1/3 198/1/3 197/1/3
f 200/1/3 198/1/3 199/1/3
f 203/1/3 202/1/3 201/1/3
f 204/1/3 202/1/3 203/1/3
f 205/2/4 206/2/4 208/2/4
f 206/2/4 207/2/4 208/2/4
f 208/2/4 207/2/4 209/2/4
f 210/1/4 211/1/4 212/1/4
f 212/1/4 211/1/4 213/1/4
f 214/3/4 215/3/4 216/3/4
f 216/3/4 215/3/4 217/3/4
f 218/3/4 219/3/4 220/3/4
f 220/3/4 219/3/4 221/3/4
f 222/1/4 223/1/4 224/1/4
f 224/1/4 223/1/4 225/1/4
f 226/3/4 227/3/4 228/3/4
f 228/3/4 227/3/4 229/3/4
f 230/2/4 231/2/4 232/2/4
f 232/2/4 231/2/4 233/2/4
f 232/3/4 233/3/4 234/3/4
f 234/3/4 233/3/4 235/3/4
f 236/1/4 237/1/4 239/1/4
f 237/1/4 238/1/4 239/1/4
f 239/1/4 238/1/4 240/1/4
f 236/1/4 239/1/4 241/1/4
f 241/1/4 239/1/4 242/1/4
f 241/2/4 242/2/4 243/2/4
f 243/2/4 242/2/4 244/2/4
f 243/3/4 244/3/4 245/3/4
f 245/3/4 244/3/4 246/3/4
f 247/1/4 248/1/4 251/1/4
f 248/2/4 249/2/4 252/2/4
f 251/1/4 248/1/4 252/1/4
f 249/3/4 250/3/4 253/3/4
f 252/2/4 249/2/4 253/2/4
f 253/3/4 250/3/4 254/3/4
f 255/1/4 256/1/4 258/1/4
f 258/1/4 256/1/4 259/1/4
f 256/3/4 257/3/4 260/3/4
f 259/1/4 256/1/4 260/1/4
f 260/3/4 257/3/4 261/3/4
f 259/1/4 260/1/4 262/1/4
f 262/1/4 260/1/4 263/1/4
f 263/1/4 260/1/4 265/1/4
f 264/1/4 265/1/4 268/1/4
f 265/1/4 260/1/4 269/1/4
f 268/1/4 265/1/4 269/1/4
f 269/1/4 260/1/4 270/1/4
f 267/1/4 268/1/4 271/1/4
f 266/1/4 267/1/4 271/1/4
f 268/1/4 269/1/4 271/1/4
f 271/1/4 269/1/4 272/1/4
f 273/1/4 274/1/4 275/1/4
f 275/1/4 274/1/4 276/1/4
f 275/2/4 276/2/4 277/2/4
f 277/2/4 276/2/4 278/2/4
f 273/1/4 275/1/4 279/1/4
f 275/2/4 277/2/4 280/2/4
f 279/1/4 275/1/4 280/1/4
f 279/2/4 280/2/4 281/2/4
f 277/3/4 278/3/4 282/3/4
f 281/2/4 280/2/4 282/2/4
f 280/2/4 277/2/4 282/2/4
f 281/3/4 282/3/4 283/3/4
f 282/3/4 278/3/4 283/3/4
f 283/3/4 278/3/4 284/3/4
f 273/1/4 279/1/4 285/1/4
f 279/2/4 281/2/4 286/2/4
f 285/1/4 279/1/4 286/1/4
f 281/3/4 283/3/4 287/3/4
f 286/2/4 281/2/4 287/2/4
f 287/3/4 283/3/4 288/3/4
f 292/1/5 290/1/5 289/1/5
f 294/1/5 292/1/5 291/1/5
f 295/1/5 290/1/5 292/1/5
f 295/1/5 292/1/5 294/1/5
f 296/1/5 290/1/5 295/1/5
f 297/1/5 294/1/5 293/1/5
f 297/1/5 295/1/5 294/1/5
f 298/1/5 295/1/5 297/1/5
f 299/1/5 295/1/5 298/1/5
f 300/1/5 295/1/5 299/1/5
f 301/1/5 295/1/5 300/1/5
f 302/1/5 295/1/5 301/1/5
f 303/1/5 301/1/5 300/1/5
f 304/1/5 301/1/5 303/1/5
f 305/2/6 306/2/6 308/2/6
f 306/1/6 307/1/6 309/1/6
f 308/2/6 306/2/6 309/2/6
f 309/1/6 307/1/6 310/1/6
f 310/1/6 307/1/6 311/1/6
f 311/1/6 307/1/6 312/1/6
f 313/3/6 314/3/6 315/3/6
f 315/3/6 314/3/6 316/3/6
f 317/3/6 318/3/6 319/3/6
f 319/3/6 318/3/6 320/3/6
f 321/1/6 322/1/6 323/1/6
f 324/1/6 325/1/6 326/1/6
f 326/1/6 325/1/6 327/1/6
f 326/2/6 327/2/6 328/2/6
f 328/2/6 327/2/6 329/2/6
f 328/3/6 329/3/6 330/3/6
f 323/1/6 322/1/6 332/1/6
f 328/3/6 330/3/6 333/3/6
f 333/3/6 330/3/6 334/3/6
f 331/1/6 332/1/6 335/1/6
f 332/1/6 322/1/6 336/1/6
f 335/1/6 332/1/6 336/1/6
f 336/1/6 322/1/6 341/1/6
f 341/1/6 322/1/6 342/1/6
f 337/1/6 338/1/6 343/1/6
f 338/2/6 339/2/6 344/2/6
f 343/1/6 338/1/6 344/1/6
f 339/3/6 340/3/6 345/3/6
f 344/2/6 339/2/6 345/2/6
f 345/3/6 340/3/6 346/3/6
f 347/1/6 348/1/6 351/1/6
f 348/2/6 349/2/6 352/2/6
f 351/1/6 348/1/6 352/1/6
f 349/3/6 350/3/6 353/3/6
f 352/2/6 349/2/6 353/2/6
f 353/3/6 350/3/6 354/3/6
f 355/3/6 356/3/6 357/3/6
f 357/3/6 356/3/6 358/3/6
f 359/3/6 360/3/6 361/3/6
f 361/3/6 360/3/6 362/3/6
f 363/1/6 364/1/6 368/1/6
f 366/1/6 367/1/6 368/1/6
f 365/1/6 366/1/6 368/1/6
f 364/1/6 365/1/6 368/1/6
f 368/1/6 367/1/6 369/1/6
f 370/1/6 371/1/6 374/1/6
f 374/1/6 371/1/6 375/1/6
f 375/1/6 371/1/6 376/1/6
f 376/1/6 371/1/6 377/1/6
f 377/1/6 371/1/6 378/1/6
f 371/2/6 372/2/6 379/2/6
f 378/1/6 371/1/6 379/1/6
f 379/2/6 372/2/6 380/2/6
f 373/3/6 374/3/6 381/3/6
f 374/1/6 375/1/6 382/1/6
f 381/3/6 374/3/6 382/3/6
f 382/1/6 375/1/6 383/1/6
f 381/2/6 382/2/6 384/2/6
f 384/2/6 382/2/6 385/2/6
f 378/1/6 379/1/6 387/1/6
f 384/1/6 385/1/6 388/1/6
f 388/1/6 385/1/6 389/1/6
f 386/1/6 387/1/6 391/1/6
f 387/1/6 379/1/6 392/1/6
f 391/1/6 387/1/6 392/1/6
f 391/2/6 392/2/6 393/2/6
f 393/2/6 392/2/6 394/2/6
f 384/1/6 388/1/6 395/1/6
f 388/2/6 389/2/6 396/2/6
f 395/1/6 388/1/6 396/1/6
f 391/2/6 393/2/6 399/2/6
f 395/2/6 396/2/6 400/2/6
f 389/3/6 390/3/6 401/3/6
f 400/2/6 396/2/6 401/2/6
f 396/2/6 389/2/6 401/2/6
f 401/3/6 390/3/6 402/3/6
f 397/1/6 398/1/6 403/1/6
f 398/1/6 399/1/6 403/1/6
f 399/2/6 393/2/6 404/2/6
f 403/1/6 399/1/6 404/1/6
f 393/3/6 394/3/6 405/3/6
f 404/2/6 393/2/6 405/2/6
f 405/3/6 394/3/6 406/3/6
f 401/3/6 402/3/6 407/3/6
f 400/3/6 401/3/6 407/3/6
f 407/3/6 402/3/6 408/3/6
f 409/1/6 410/1/6 413/1/6
f 410/2/6 411/2/6 414/2/6
f 413/1/6 410/1/6 414/1/6
f 409/1/6 413/1/6 416/1/6
f 413/2/6 414/2/6 417/2/6
f 411/3/6 412/3/6 418/3/6
f 417/2/6 414/2/6 418/2/6
f 414/2/6 411/2/6 418/2/6
f 417/3/6 418/3/6 419/3/6
f 418/3/6 412/3/6 419/3/6
f 419/3/6 412/3/6 420/3/6
f 415/1/6 416/1/6 421/1/6
f 421/1/6 416/1/6 422/1/6
f 413/2/6 417/2/6 423/2/6
f 422/1/6 416/1/6 423/1/6
f 416/1/6 413/1/6 423/1/6
f 417/3/6 419/3/6 424/3/6
f 423/2/6 417/2/6 424/2/6
f 424/3/6 419/3/6 425/3/6
f 422/1/6 423/1/6 426/1/6
f 426/1/6 423/1/6 427/1/6
