# MagicaVoxel @ Ephtracy

# group
o 

# material
mtllib BeesAndTrees-10.mtl
usemtl palette

# normals
vn -1 0 0
vn 1 0 0
vn 0 0 1
vn 0 0 -1
vn 0 -1 0
vn 0 1 0

# texcoords
vt 0.408203 0.5
vt 0.412109 0.5
vt 0.501953 0.5
vt 0.505859 0.5

# verts
v -0.2 -0.6 0.1
v -0.2 -0.6 0
v -0.2 -0.5 0.1
v -0.2 -0.5 0
v -0.2 -0.5 -0.1
v -0.2 -0.5 -0.2
v -0.2 -0.4 0.1
v -0.2 -0.4 0
v -0.2 -0.4 -0.1
v -0.2 -0.4 -0.2
v -0.2 -0.3 -0.1
v -0.2 -0.3 -0.2
v -0.2 -0.2 -0.1
v -0.2 -0.2 -0.2
v -0.2 0.2 0.2
v -0.2 0.2 0.1
v -0.2 0.2 0
v -0.2 0.2 -0.1
v -0.2 0.3 0.2
v -0.2 0.3 0.1
v -0.2 0.3 0
v -0.2 0.3 -0.1
v -0.2 0.4 0.2
v -0.2 0.4 0.1
v -0.2 0.4 -0.1
v -0.2 0.5 0.2
v -0.2 0.5 0.1
v -0.2 0.5 -0.1
v -0.1 -0.6 0
v -0.1 -0.6 -0.1
v -0.1 -0.5 0
v -0.1 -0.5 -0.1
v -0.1 0.1 0.2
v -0.1 0.1 0
v -0.1 0.1 -0.1
v -0.1 0.2 0.2
v -0.1 0.2 0.1
v -0.1 0.2 0
v -0.1 0.2 -0.1
v -0.1 0.2 -0.2
v -0.1 0.3 0.3
v -0.1 0.3 0.2
v -0.1 0.3 0.1
v -0.1 0.3 0
v -0.1 0.3 -0.1
v -0.1 0.4 0.2
v -0.1 0.4 0.1
v -0.1 0.4 -0.1
v -0.1 0.5 0.3
v -0.1 0.5 0.2
v -0.1 0.5 0.1
v -0.1 0.5 0
v -0.1 0.5 -0.1
v -0.1 0.5 -0.2
v -0.1 0.6 0.2
v -0.1 0.6 0.1
v -0.1 0.6 0
v -0.1 0.6 -0.1
v 0 -0.6 0.3
v 0 -0.6 0.2
v 0 -0.5 0.1
v 0 -0.5 0
v 0 -0.4 0.3
v 0 -0.4 0.2
v 0 -0.4 0.1
v 0 -0.4 0
v 0 -0.3 0.1
v 0 -0.3 0
v 0 -0.2 0.1
v 0 -0.2 0
v 0 0.1 0.1
v 0 0.1 0
v 0 0.2 0.3
v 0 0.2 0.2
v 0 0.3 0.3
v 0 0.3 0.2
v 0 0.5 0.1
v 0 0.5 0
v 0 0.6 0.1
v 0 0.6 0
v 0.1 -0.6 -0.2
v 0.1 -0.6 -0.3
v 0.1 -0.5 -0.2
v 0.1 -0.5 -0.3
v 0.1 -0.4 -0.2
v 0.1 -0.4 -0.3
v 0.1 0.3 -0.1
v 0.1 0.3 -0.2
v 0.1 0.4 -0.1
v 0.1 0.4 -0.2
v 0.2 -0.5 0.1
v 0.2 -0.5 0
v 0.2 -0.3 0.1
v 0.2 -0.3 0
v -0.1 -0.5 0.1
v -0.1 -0.5 0
v -0.1 -0.5 -0.1
v -0.1 -0.5 -0.2
v -0.1 -0.4 0.1
v -0.1 -0.4 0
v -0.1 -0.4 -0.1
v -0.1 -0.4 -0.2
v -0.1 -0.3 -0.1
v -0.1 -0.3 -0.2
v -0.1 -0.2 -0.1
v -0.1 -0.2 -0.2
v 0 -0.6 0
v 0 -0.6 -0.1
v 0 -0.5 0
v 0 -0.5 -0.1
v 0 0.3 -0.1
v 0 0.3 -0.2
v 0 0.4 -0.1
v 0 0.4 -0.2
v 0.1 -0.6 0.3
v 0.1 -0.6 0.2
v 0.1 -0.5 0.1
v 0.1 -0.5 0
v 0.1 -0.4 0.3
v 0.1 -0.4 0.2
v 0.1 -0.4 0.1
v 0.1 -0.4 0
v 0.1 -0.3 0.1
v 0.1 -0.3 0
v 0.1 -0.2 0.1
v 0.1 -0.2 0
v 0.1 0.1 0.2
v 0.1 0.1 0.1
v 0.1 0.1 0
v 0.1 0.2 0.3
v 0.1 0.2 0.2
v 0.1 0.2 0.1
v 0.1 0.3 0.3
v 0.1 0.3 0.2
v 0.1 0.4 0.3
v 0.1 0.4 0.2
v 0.1 0.4 -0.1
v 0.1 0.4 -0.2
v 0.1 0.5 0.3
v 0.1 0.5 0.2
v 0.1 0.5 0.1
v 0.1 0.5 -0.1
v 0.1 0.5 -0.2
v 0.1 0.6 0.2
v 0.1 0.6 0.1
v 0.2 -0.6 -0.2
v 0.2 -0.6 -0.3
v 0.2 -0.5 -0.2
v 0.2 -0.5 -0.3
v 0.2 -0.4 -0.2
v 0.2 -0.4 -0.3
v 0.2 0.1 0.1
v 0.2 0.1 0
v 0.2 0.1 -0.1
v 0.2 0.2 0.1
v 0.2 0.2 0
v 0.2 0.2 -0.1
v 0.2 0.2 -0.2
v 0.2 0.3 0.3
v 0.2 0.3 0.2
v 0.2 0.3 0.1
v 0.2 0.3 0
v 0.2 0.3 -0.1
v 0.2 0.4 0.3
v 0.2 0.4 0.2
v 0.2 0.4 0.1
v 0.2 0.4 0
v 0.2 0.4 -0.1
v 0.2 0.4 -0.2
v 0.2 0.5 0.1
v 0.2 0.5 0
v 0.2 0.5 -0.1
v 0.2 0.6 0.1
v 0.2 0.6 -0.1
v 0.3 -0.6 0.1
v 0.3 -0.6 0
v 0.3 -0.3 0.1
v 0.3 -0.3 0
v 0.3 0.2 0.2
v 0.3 0.2 0.1
v 0.3 0.2 0
v 0.3 0.2 -0.1
v 0.3 0.3 0.2
v 0.3 0.3 0.1
v 0.3 0.3 0
v 0.3 0.3 -0.1
v 0.3 0.4 0.2
v 0.3 0.4 0.1
v 0.3 0.4 0
v 0.3 0.4 -0.1
v 0.3 0.5 0.2
v 0.3 0.5 0.1
v 0.3 0.5 0
v 0.3 0.5 -0.1
v -0.1 0.3 0.3
v -0.1 0.5 0.3
v 0 -0.6 0.3
v 0 -0.4 0.3
v 0 0.2 0.3
v 0 0.3 0.3
v 0 0.4 0.3
v 0.1 -0.6 0.3
v 0.1 -0.4 0.3
v 0.1 0.2 0.3
v 0.1 0.3 0.3
v 0.1 0.4 0.3
v 0.1 0.5 0.3
v 0.2 0.3 0.3
v 0.2 0.4 0.3
v -0.2 0.2 0.2
v -0.2 0.3 0.2
v -0.2 0.4 0.2
v -0.2 0.5 0.2
v -0.1 0.1 0.2
v -0.1 0.2 0.2
v -0.1 0.3 0.2
v -0.1 0.4 0.2
v -0.1 0.5 0.2
v -0.1 0.6 0.2
v 0 0.1 0.2
v 0 0.2 0.2
v 0 0.3 0.2
v 0.1 0.1 0.2
v 0.1 0.2 0.2
v 0.1 0.3 0.2
v 0.1 0.4 0.2
v 0.1 0.5 0.2
v 0.1 0.6 0.2
v 0.2 0.3 0.2
v 0.2 0.4 0.2
v 0.2 0.5 0.2
v 0.3 0.2 0.2
v 0.3 0.3 0.2
v 0.3 0.4 0.2
v 0.3 0.5 0.2
v -0.2 -0.6 0.1
v -0.2 -0.5 0.1
v -0.2 -0.4 0.1
v -0.2 0.3 0.1
v -0.2 0.4 0.1
v -0.1 -0.5 0.1
v -0.1 -0.4 0.1
v -0.1 0.3 0.1
v -0.1 0.4 0.1
v 0 -0.5 0.1
v 0 -0.4 0.1
v 0 -0.3 0.1
v 0 -0.2 0.1
v 0 0.1 0.1
v 0.1 -0.5 0.1
v 0.1 -0.4 0.1
v 0.1 -0.3 0.1
v 0.1 -0.2 0.1
v 0.1 0.1 0.1
v 0.1 0.2 0.1
v 0.1 0.5 0.1
v 0.1 0.6 0.1
v 0.2 -0.6 0.1
v 0.2 -0.5 0.1
v 0.2 -0.3 0.1
v 0.2 0.1 0.1
v 0.2 0.2 0.1
v 0.2 0.3 0.1
v 0.2 0.4 0.1
v 0.2 0.5 0.1
v 0.2 0.6 0.1
v 0.3 -0.6 0.1
v 0.3 -0.3 0.1
v 0.3 0.3 0.1
v 0.3 0.4 0.1
v -0.2 0.2 0
v -0.2 0.3 0
v -0.1 0.2 0
v -0.1 0.3 0
v -0.1 0.5 0
v -0.1 0.6 0
v 0 0.5 0
v 0 0.6 0
v 0.2 0.2 0
v 0.2 0.3 0
v 0.3 0.2 0
v 0.3 0.3 0
v -0.2 -0.5 -0.1
v -0.2 -0.4 -0.1
v -0.2 -0.3 -0.1
v -0.2 -0.2 -0.1
v -0.1 -0.5 -0.1
v -0.1 -0.4 -0.1
v -0.1 -0.3 -0.1
v -0.1 -0.2 -0.1
v 0.1 -0.6 -0.2
v 0.1 -0.5 -0.2
v 0.1 -0.4 -0.2
v 0.2 -0.6 -0.2
v 0.2 -0.5 -0.2
v 0.2 -0.4 -0.2
v 0 -0.6 0.2
v 0 -0.4 0.2
v 0.1 -0.6 0.2
v 0.1 -0.4 0.2
v -0.2 0.2 0.1
v -0.2 0.3 0.1
v -0.1 0.2 0.1
v -0.1 0.3 0.1
v -0.1 0.5 0.1
v -0.1 0.6 0.1
v 0 0.5 0.1
v 0 0.6 0.1
v 0.2 0.2 0.1
v 0.2 0.3 0.1
v 0.3 0.2 0.1
v 0.3 0.3 0.1
v -0.2 -0.6 0
v -0.2 -0.5 0
v -0.2 -0.4 0
v -0.1 -0.6 0
v -0.1 -0.5 0
v -0.1 -0.4 0
v 0 -0.6 0
v 0 -0.5 0
v 0 -0.4 0
v 0 -0.3 0
v 0 -0.2 0
v 0 0.1 0
v 0.1 -0.5 0
v 0.1 -0.4 0
v 0.1 -0.3 0
v 0.1 -0.2 0
v 0.1 0.1 0
v 0.2 -0.6 0
v 0.2 -0.5 0
v 0.2 -0.3 0
v 0.2 0.3 0
v 0.2 0.4 0
v 0.3 -0.6 0
v 0.3 -0.3 0
v 0.3 0.3 0
v 0.3 0.4 0
v -0.2 0.2 -0.1
v -0.2 0.3 -0.1
v -0.2 0.4 -0.1
v -0.2 0.5 -0.1
v -0.1 -0.6 -0.1
v -0.1 -0.5 -0.1
v -0.1 0.1 -0.1
v -0.1 0.2 -0.1
v -0.1 0.3 -0.1
v -0.1 0.4 -0.1
v -0.1 0.5 -0.1
v -0.1 0.6 -0.1
v 0 -0.6 -0.1
v 0 -0.5 -0.1
v 0 0.3 -0.1
v 0 0.4 -0.1
v 0 0.5 -0.1
v 0 0.6 -0.1
v 0.1 0.1 -0.1
v 0.1 0.2 -0.1
v 0.1 0.3 -0.1
v 0.1 0.4 -0.1
v 0.1 0.5 -0.1
v 0.2 0.1 -0.1
v 0.2 0.2 -0.1
v 0.2 0.3 -0.1
v 0.2 0.4 -0.1
v 0.2 0.5 -0.1
v 0.2 0.6 -0.1
v 0.3 0.2 -0.1
v 0.3 0.3 -0.1
v 0.3 0.4 -0.1
v 0.3 0.5 -0.1
v -0.2 -0.5 -0.2
v -0.2 -0.4 -0.2
v -0.2 -0.3 -0.2
v -0.2 -0.2 -0.2
v -0.1 -0.5 -0.2
v -0.1 -0.4 -0.2
v -0.1 -0.3 -0.2
v -0.1 -0.2 -0.2
v -0.1 0.2 -0.2
v -0.1 0.5 -0.2
v 0 0.3 -0.2
v 0 0.4 -0.2
v 0 0.5 -0.2
v 0.1 0.3 -0.2
v 0.1 0.4 -0.2
v 0.1 0.5 -0.2
v 0.2 0.2 -0.2
v 0.2 0.4 -0.2
v 0.1 -0.6 -0.3
v 0.1 -0.5 -0.3
v 0.1 -0.4 -0.3
v 0.2 -0.6 -0.3
v 0.2 -0.5 -0.3
v 0.2 -0.4 -0.3
v 0 -0.6 0.3
v 0.1 -0.6 0.3
v 0 -0.6 0.2
v 0.1 -0.6 0.2
v -0.2 -0.6 0.1
v 0.2 -0.6 0.1
v 0.3 -0.6 0.1
v -0.2 -0.6 0
v -0.1 -0.6 0
v 0 -0.6 0
v 0.2 -0.6 0
v 0.3 -0.6 0
v -0.1 -0.6 -0.1
v 0 -0.6 -0.1
v 0.1 -0.6 -0.2
v 0.2 -0.6 -0.2
v 0.1 -0.6 -0.3
v 0.2 -0.6 -0.3
v -0.2 -0.5 -0.1
v -0.1 -0.5 -0.1
v -0.2 -0.5 -0.2
v -0.1 -0.5 -0.2
v -0.1 0.1 0.2
v 0 0.1 0.2
v 0.1 0.1 0.2
v 0 0.1 0.1
v 0.1 0.1 0.1
v 0.2 0.1 0.1
v -0.1 0.1 0
v 0 0.1 0
v 0.1 0.1 0
v 0.2 0.1 0
v -0.1 0.1 -0.1
v 0.1 0.1 -0.1
v 0.2 0.1 -0.1
v 0 0.2 0.3
v 0.1 0.2 0.3
v -0.2 0.2 0.2
v -0.1 0.2 0.2
v 0 0.2 0.2
v 0.1 0.2 0.2
v 0.3 0.2 0.2
v -0.2 0.2 0.1
v -0.1 0.2 0.1
v 0.1 0.2 0.1
v 0.2 0.2 0.1
v 0.3 0.2 0.1
v -0.2 0.2 0
v -0.1 0.2 0
v 0.2 0.2 0
v 0.3 0.2 0
v -0.2 0.2 -0.1
v -0.1 0.2 -0.1
v 0.1 0.2 -0.1
v 0.2 0.2 -0.1
v 0.3 0.2 -0.1
v -0.1 0.2 -0.2
v 0.2 0.2 -0.2
v -0.1 0.3 0.3
v 0 0.3 0.3
v 0.1 0.3 0.3
v 0.2 0.3 0.3
v -0.1 0.3 0.2
v 0 0.3 0.2
v 0.1 0.3 0.2
v 0.2 0.3 0.2
v -0.2 0.3 0.1
v -0.1 0.3 0.1
v 0.2 0.3 0.1
v 0.3 0.3 0.1
v -0.2 0.3 0
v -0.1 0.3 0
v 0.2 0.3 0
v 0.3 0.3 0
v -0.2 0.4 0.2
v -0.1 0.4 0.2
v 0.2 0.4 0.2
v 0.3 0.4 0.2
v -0.2 0.4 0.1
v -0.1 0.4 0.1
v 0.2 0.4 0.1
v 0.3 0.4 0.1
v 0.2 0.4 0
v 0.3 0.4 0
v 0 0.4 -0.1
v 0.1 0.4 -0.1
v 0.2 0.4 -0.1
v 0.3 0.4 -0.1
v 0 0.4 -0.2
v 0.1 0.4 -0.2
v -0.1 -0.5 0.1
v 0 -0.5 0.1
v 0.1 -0.5 0.1
v 0.2 -0.5 0.1
v -0.1 -0.5 0
v 0 -0.5 0
v 0.1 -0.5 0
v 0.2 -0.5 0
v -0.1 -0.5 -0.1
v 0 -0.5 -0.1
v 0 -0.4 0.3
v 0.1 -0.4 0.3
v 0 -0.4 0.2
v 0.1 -0.4 0.2
v -0.2 -0.4 0.1
v -0.1 -0.4 0.1
v -0.2 -0.4 0
v -0.1 -0.4 0
v 0.1 -0.4 -0.2
v 0.2 -0.4 -0.2
v 0.1 -0.4 -0.3
v 0.2 -0.4 -0.3
v 0.2 -0.3 0.1
v 0.3 -0.3 0.1
v 0.2 -0.3 0
v 0.3 -0.3 0
v -0.2 -0.2 -0.1
v -0.1 -0.2 -0.1
v -0.2 -0.2 -0.2
v -0.1 -0.2 -0.2
v -0.2 0.3 0.2
v -0.1 0.3 0.2
v 0.2 0.3 0.2
v 0.3 0.3 0.2
v -0.2 0.3 0.1
v -0.1 0.3 0.1
v 0.2 0.3 0.1
v 0.3 0.3 0.1
v 0.2 0.3 0
v 0.3 0.3 0
v 0 0.3 -0.1
v 0.1 0.3 -0.1
v 0.2 0.3 -0.1
v 0.3 0.3 -0.1
v 0 0.3 -0.2
v 0.1 0.3 -0.2
v 0.1 0.4 0.3
v 0.2 0.4 0.3
v 0.1 0.4 0.2
v 0.2 0.4 0.2
v 0.1 0.4 -0.1
v 0.2 0.4 -0.1
v 0.1 0.4 -0.2
v 0.2 0.4 -0.2
v -0.1 0.5 0.3
v 0.1 0.5 0.3
v -0.2 0.5 0.2
v -0.1 0.5 0.2
v 0.1 0.5 0.2
v 0.2 0.5 0.2
v 0.3 0.5 0.2
v -0.2 0.5 0.1
v -0.1 0.5 0.1
v 0 0.5 0.1
v 0.1 0.5 0.1
v 0.2 0.5 0.1
v 0.3 0.5 0.1
v -0.1 0.5 0
v 0 0.5 0
v 0.2 0.5 0
v 0.3 0.5 0
v -0.2 0.5 -0.1
v -0.1 0.5 -0.1
v 0 0.5 -0.1
v 0.1 0.5 -0.1
v 0.2 0.5 -0.1
v 0.3 0.5 -0.1
v -0.1 0.5 -0.2
v 0 0.5 -0.2
v 0.1 0.5 -0.2
v -0.1 0.6 0.2
v 0.1 0.6 0.2
v -0.1 0.6 0.1
v 0 0.6 0.1
v 0.1 0.6 0.1
v 0.2 0.6 0.1
v -0.1 0.6 0
v 0 0.6 0
v -0.1 0.6 -0.1
v 0 0.6 -0.1
v 0.2 0.6 -0.1

# faces
f 3/1/1 2/1/1 1/1/1
f 4/1/1 2/1/1 3/1/1
f 7/2/1 4/2/1 3/2/1
f 8/2/1 4/2/1 7/2/1
f 9/1/1 6/1/1 5/1/1
f 10/1/1 6/1/1 9/1/1
f 11/2/1 10/2/1 9/2/1
f 12/2/1 10/2/1 11/2/1
f 13/1/1 12/1/1 11/1/1
f 14/1/1 12/1/1 13/1/1
f 19/3/1 16/3/1 15/3/1
f 20/3/1 16/3/1 19/3/1
f 21/3/1 18/3/1 17/3/1
f 22/3/1 18/3/1 21/3/1
f 24/4/1 21/4/1 20/4/1
f 24/4/1 22/4/1 21/4/1
f 25/4/1 22/4/1 24/4/1
f 26/4/1 24/4/1 23/4/1
f 27/3/1 25/3/1 24/3/1
f 27/4/1 24/4/1 26/4/1
f 28/3/1 25/3/1 27/3/1
f 31/2/1 30/2/1 29/2/1
f 32/2/1 30/2/1 31/2/1
f 36/4/1 34/4/1 33/4/1
f 37/4/1 34/4/1 36/4/1
f 38/3/1 35/3/1 34/3/1
f 38/4/1 34/4/1 37/4/1
f 39/3/1 35/3/1 38/3/1
f 43/3/1 38/3/1 37/3/1
f 44/3/1 38/3/1 43/3/1
f 45/3/1 40/3/1 39/3/1
f 46/4/1 42/4/1 41/4/1
f 46/3/1 43/3/1 42/3/1
f 47/3/1 43/3/1 46/3/1
f 48/3/1 40/3/1 45/3/1
f 49/4/1 46/4/1 41/4/1
f 50/4/1 46/4/1 49/4/1
f 53/3/1 40/3/1 48/3/1
f 54/3/1 40/3/1 53/3/1
f 55/4/1 51/4/1 50/4/1
f 56/4/1 51/4/1 55/4/1
f 57/4/1 53/4/1 52/4/1
f 58/4/1 53/4/1 57/4/1
f 63/1/1 60/1/1 59/1/1
f 64/1/1 60/1/1 63/1/1
f 65/1/1 62/1/1 61/1/1
f 66/1/1 62/1/1 65/1/1
f 67/2/1 66/2/1 65/2/1
f 68/2/1 66/2/1 67/2/1
f 69/1/1 68/1/1 67/1/1
f 70/1/1 68/1/1 69/1/1
f 71/2/1 70/2/1 69/2/1
f 72/2/1 70/2/1 71/2/1
f 75/4/1 74/4/1 73/4/1
f 76/4/1 74/4/1 75/4/1
f 79/3/1 78/3/1 77/3/1
f 80/3/1 78/3/1 79/3/1
f 83/2/1 82/2/1 81/2/1
f 84/2/1 82/2/1 83/2/1
f 85/1/1 84/1/1 83/1/1
f 86/1/1 84/1/1 85/1/1
f 89/3/1 88/3/1 87/3/1
f 90/3/1 88/3/1 89/3/1
f 93/2/1 92/2/1 91/2/1
f 94/2/1 92/2/1 93/2/1
f 95/2/2 96/2/2 99/2/2
f 99/2/2 96/2/2 100/2/2
f 97/1/2 98/1/2 101/1/2
f 101/1/2 98/1/2 102/1/2
f 101/2/2 102/2/2 103/2/2
f 103/2/2 102/2/2 104/2/2
f 103/1/2 104/1/2 105/1/2
f 105/1/2 104/1/2 106/1/2
f 107/2/2 108/2/2 109/2/2
f 109/2/2 108/2/2 110/2/2
f 111/3/2 112/3/2 113/3/2
f 113/3/2 112/3/2 114/3/2
f 115/1/2 116/1/2 119/1/2
f 119/1/2 116/1/2 120/1/2
f 117/1/2 118/1/2 121/1/2
f 121/1/2 118/1/2 122/1/2
f 121/2/2 122/2/2 123/2/2
f 123/2/2 122/2/2 124/2/2
f 123/1/2 124/1/2 125/1/2
f 125/1/2 124/1/2 126/1/2
f 125/2/2 126/2/2 128/2/2
f 128/2/2 126/2/2 129/2/2
f 127/3/2 128/3/2 131/3/2
f 131/3/2 128/3/2 132/3/2
f 130/4/2 131/4/2 133/4/2
f 133/4/2 131/4/2 134/4/2
f 135/4/2 136/4/2 139/4/2
f 139/4/2 136/4/2 140/4/2
f 137/4/2 138/4/2 142/4/2
f 142/4/2 138/4/2 143/4/2
f 140/4/2 141/4/2 144/4/2
f 144/4/2 141/4/2 145/4/2
f 146/2/2 147/2/2 148/2/2
f 148/2/2 147/2/2 149/2/2
f 148/1/2 149/1/2 150/1/2
f 150/1/2 149/1/2 151/1/2
f 152/3/2 153/3/2 155/3/2
f 153/4/2 154/4/2 156/4/2
f 155/3/2 153/3/2 156/3/2
f 156/4/2 154/4/2 157/4/2
f 155/3/2 156/3/2 161/3/2
f 161/3/2 156/3/2 162/3/2
f 157/3/2 158/3/2 163/3/2
f 159/4/2 160/4/2 164/4/2
f 160/3/2 161/3/2 165/3/2
f 164/4/2 160/4/2 165/4/2
f 165/3/2 161/3/2 166/3/2
f 162/4/2 163/4/2 167/4/2
f 163/3/2 158/3/2 168/3/2
f 167/4/2 163/4/2 168/4/2
f 168/3/2 158/3/2 169/3/2
f 170/3/2 171/3/2 173/3/2
f 171/3/2 172/3/2 173/3/2
f 173/3/2 172/3/2 174/3/2
f 175/2/2 176/2/2 177/2/2
f 177/2/2 176/2/2 178/2/2
f 179/3/2 180/3/2 183/3/2
f 183/3/2 180/3/2 184/3/2
f 181/3/2 182/3/2 185/3/2
f 185/3/2 182/3/2 186/3/2
f 184/4/2 185/4/2 188/4/2
f 188/4/2 185/4/2 189/4/2
f 187/4/2 188/4/2 191/4/2
f 188/3/2 189/3/2 192/3/2
f 191/4/2 188/4/2 192/4/2
f 189/4/2 190/4/2 193/4/2
f 192/3/2 189/3/2 193/3/2
f 193/4/2 190/4/2 194/4/2
f 200/4/3 196/4/3 195/4/3
f 201/4/3 196/4/3 200/4/3
f 202/1/3 198/1/3 197/1/3
f 203/1/3 198/1/3 202/1/3
f 204/4/3 200/4/3 199/4/3
f 205/3/3 201/3/3 200/3/3
f 205/4/3 200/4/3 204/4/3
f 206/4/3 196/4/3 201/4/3
f 206/3/3 201/3/3 205/3/3
f 207/4/3 196/4/3 206/4/3
f 208/4/3 206/4/3 205/4/3
f 209/4/3 206/4/3 208/4/3
f 215/3/3 211/3/3 210/3/3
f 216/3/3 211/3/3 215/3/3
f 217/4/3 213/4/3 212/4/3
f 218/4/3 213/4/3 217/4/3
f 220/4/3 215/4/3 214/4/3
f 221/3/3 216/3/3 215/3/3
f 221/4/3 215/4/3 220/4/3
f 222/3/3 216/3/3 221/3/3
f 223/3/3 221/3/3 220/3/3
f 224/3/3 221/3/3 223/3/3
f 227/4/3 219/4/3 218/4/3
f 228/4/3 219/4/3 227/4/3
f 229/3/3 225/3/3 224/3/3
f 230/3/3 227/3/3 226/3/3
f 231/3/3 227/3/3 230/3/3
f 232/3/3 229/3/3 224/3/3
f 233/3/3 229/3/3 232/3/3
f 234/4/3 231/4/3 230/4/3
f 235/4/3 231/4/3 234/4/3
f 241/1/3 237/1/3 236/1/3
f 241/2/3 238/2/3 237/2/3
f 242/2/3 238/2/3 241/2/3
f 243/4/3 240/4/3 239/4/3
f 244/4/3 240/4/3 243/4/3
f 245/1/3 241/1/3 236/1/3
f 250/1/3 245/1/3 236/1/3
f 250/1/3 246/1/3 245/1/3
f 251/2/3 247/2/3 246/2/3
f 251/1/3 246/1/3 250/1/3
f 252/1/3 248/1/3 247/1/3
f 252/2/3 247/2/3 251/2/3
f 253/2/3 249/2/3 248/2/3
f 253/1/3 248/1/3 252/1/3
f 254/2/3 249/2/3 253/2/3
f 258/1/3 250/1/3 236/1/3
f 259/1/3 250/1/3 258/1/3
f 261/3/3 255/3/3 254/3/3
f 262/3/3 255/3/3 261/3/3
f 265/3/3 257/3/3 256/3/3
f 266/3/3 257/3/3 265/3/3
f 267/2/3 260/2/3 259/2/3
f 267/2/3 259/2/3 258/2/3
f 268/2/3 260/2/3 267/2/3
f 269/4/3 264/4/3 263/4/3
f 270/4/3 264/4/3 269/4/3
f 273/3/3 272/3/3 271/3/3
f 274/3/3 272/3/3 273/3/3
f 277/4/3 276/4/3 275/4/3
f 278/4/3 276/4/3 277/4/3
f 281/3/3 280/3/3 279/3/3
f 282/3/3 280/3/3 281/3/3
f 287/1/3 284/1/3 283/1/3
f 288/2/3 285/2/3 284/2/3
f 288/1/3 284/1/3 287/1/3
f 289/1/3 286/1/3 285/1/3
f 289/2/3 285/2/3 288/2/3
f 290/1/3 286/1/3 289/1/3
f 294/2/3 292/2/3 291/2/3
f 295/1/3 293/1/3 292/1/3
f 295/2/3 292/2/3 294/2/3
f 296/1/3 293/1/3 295/1/3
f 297/1/4 298/1/4 299/1/4
f 299/1/4 298/1/4 300/1/4
f 301/3/4 302/3/4 303/3/4
f 303/3/4 302/3/4 304/3/4
f 305/4/4 306/4/4 307/4/4
f 307/4/4 306/4/4 308/4/4
f 309/3/4 310/3/4 311/3/4
f 311/3/4 310/3/4 312/3/4
f 313/1/4 314/1/4 316/1/4
f 314/2/4 315/2/4 317/2/4
f 316/1/4 314/1/4 317/1/4
f 317/2/4 315/2/4 318/2/4
f 320/1/4 321/1/4 325/1/4
f 319/1/4 320/1/4 325/1/4
f 321/2/4 322/2/4 326/2/4
f 325/1/4 321/1/4 326/1/4
f 322/1/4 323/1/4 327/1/4
f 326/2/4 322/2/4 327/2/4
f 323/2/4 324/2/4 328/2/4
f 327/1/4 323/1/4 328/1/4
f 328/2/4 324/2/4 329/2/4
f 319/1/4 325/1/4 330/1/4
f 330/1/4 325/1/4 331/1/4
f 331/2/4 332/2/4 335/2/4
f 330/2/4 331/2/4 335/2/4
f 335/2/4 332/2/4 336/2/4
f 333/4/4 334/4/4 337/4/4
f 337/4/4 334/4/4 338/4/4
f 339/3/4 340/3/4 346/3/4
f 340/4/4 341/4/4 347/4/4
f 346/3/4 340/3/4 347/3/4
f 341/3/4 342/3/4 348/3/4
f 347/4/4 341/4/4 348/4/4
f 348/3/4 342/3/4 349/3/4
f 343/2/4 344/2/4 351/2/4
f 351/2/4 344/2/4 352/2/4
f 349/4/4 350/4/4 355/4/4
f 355/4/4 350/4/4 356/4/4
f 345/3/4 346/3/4 357/3/4
f 357/3/4 346/3/4 358/3/4
f 353/3/4 354/3/4 359/3/4
f 359/3/4 354/3/4 360/3/4
f 355/3/4 356/3/4 361/3/4
f 357/4/4 358/4/4 362/4/4
f 362/4/4 358/4/4 363/4/4
f 360/4/4 361/4/4 365/4/4
f 361/3/4 356/3/4 366/3/4
f 365/4/4 361/4/4 366/4/4
f 366/3/4 356/3/4 367/3/4
f 363/3/4 364/3/4 368/3/4
f 368/3/4 364/3/4 369/3/4
f 365/4/4 366/4/4 370/4/4
f 370/4/4 366/4/4 371/4/4
f 372/1/4 373/1/4 376/1/4
f 373/2/4 374/2/4 377/2/4
f 376/1/4 373/1/4 377/1/4
f 374/1/4 375/1/4 378/1/4
f 377/2/4 374/2/4 378/2/4
f 378/1/4 375/1/4 379/1/4
f 380/3/4 381/3/4 382/3/4
f 382/3/4 381/3/4 383/3/4
f 383/3/4 381/3/4 384/3/4
f 380/3/4 382/3/4 385/3/4
f 383/4/4 384/4/4 386/4/4
f 386/4/4 384/4/4 387/4/4
f 380/3/4 385/3/4 388/3/4
f 385/3/4 386/3/4 388/3/4
f 388/3/4 386/3/4 389/3/4
f 390/2/4 391/2/4 393/2/4
f 391/1/4 392/1/4 394/1/4
f 393/2/4 391/2/4 394/2/4
f 394/1/4 392/1/4 395/1/4
f 398/1/5 397/1/5 396/1/5
f 399/1/5 397/1/5 398/1/5
f 403/1/5 401/1/5 400/1/5
f 404/1/5 401/1/5 403/1/5
f 405/1/5 401/1/5 404/1/5
f 406/2/5 402/2/5 401/2/5
f 406/1/5 401/1/5 405/1/5
f 407/2/5 402/2/5 406/2/5
f 408/2/5 405/2/5 404/2/5
f 409/2/5 405/2/5 408/2/5
f 412/2/5 411/2/5 410/2/5
f 413/2/5 411/2/5 412/2/5
f 416/1/5 415/1/5 414/1/5
f 417/1/5 415/1/5 416/1/5
f 421/4/5 419/4/5 418/4/5
f 421/3/5 420/3/5 419/3/5
f 422/3/5 420/3/5 421/3/5
f 424/4/5 421/4/5 418/4/5
f 425/4/5 421/4/5 424/4/5
f 426/3/5 423/3/5 422/3/5
f 427/3/5 423/3/5 426/3/5
f 428/3/5 425/3/5 424/3/5
f 428/3/5 426/3/5 425/3/5
f 429/4/5 427/4/5 426/4/5
f 429/3/5 426/3/5 428/3/5
f 430/4/5 427/4/5 429/4/5
f 435/4/5 432/4/5 431/4/5
f 436/4/5 432/4/5 435/4/5
f 438/3/5 434/3/5 433/3/5
f 439/3/5 434/3/5 438/3/5
f 440/3/5 437/3/5 436/3/5
f 441/3/5 437/3/5 440/3/5
f 442/3/5 437/3/5 441/3/5
f 447/3/5 444/3/5 443/3/5
f 448/3/5 444/3/5 447/3/5
f 450/3/5 446/3/5 445/3/5
f 451/3/5 446/3/5 450/3/5
f 452/3/5 449/3/5 448/3/5
f 452/3/5 450/3/5 449/3/5
f 453/3/5 450/3/5 452/3/5
f 458/4/5 455/4/5 454/4/5
f 459/4/5 455/4/5 458/4/5
f 460/4/5 457/4/5 456/4/5
f 461/4/5 457/4/5 460/4/5
f 466/4/5 463/4/5 462/4/5
f 467/4/5 463/4/5 466/4/5
f 468/4/5 465/4/5 464/4/5
f 469/4/5 465/4/5 468/4/5
f 474/4/5 471/4/5 470/4/5
f 475/4/5 471/4/5 474/4/5
f 476/4/5 473/4/5 472/4/5
f 477/4/5 473/4/5 476/4/5
f 482/4/5 479/4/5 478/4/5
f 483/4/5 479/4/5 482/4/5
f 484/4/5 481/4/5 480/4/5
f 485/4/5 481/4/5 484/4/5
f 486/1/6 487/1/6 490/1/6
f 490/1/6 487/1/6 491/1/6
f 488/1/6 489/1/6 492/1/6
f 492/1/6 489/1/6 493/1/6
f 490/2/6 491/2/6 494/2/6
f 494/2/6 491/2/6 495/2/6
f 496/1/6 497/1/6 498/1/6
f 498/1/6 497/1/6 499/1/6
f 500/2/6 501/2/6 502/2/6
f 502/2/6 501/2/6 503/2/6
f 504/1/6 505/1/6 506/1/6
f 506/1/6 505/1/6 507/1/6
f 508/2/6 509/2/6 510/2/6
f 510/2/6 509/2/6 511/2/6
f 512/1/6 513/1/6 514/1/6
f 514/1/6 513/1/6 515/1/6
f 516/3/6 517/3/6 520/3/6
f 520/3/6 517/3/6 521/3/6
f 518/3/6 519/3/6 522/3/6
f 522/3/6 519/3/6 523/3/6
f 524/3/6 525/3/6 528/3/6
f 528/3/6 525/3/6 529/3/6
f 526/3/6 527/3/6 530/3/6
f 530/3/6 527/3/6 531/3/6
f 532/4/6 533/4/6 534/4/6
f 534/4/6 533/4/6 535/4/6
f 536/3/6 537/3/6 538/3/6
f 538/3/6 537/3/6 539/3/6
f 540/4/6 541/4/6 543/4/6
f 543/4/6 541/4/6 544/4/6
f 542/4/6 543/4/6 547/4/6
f 547/4/6 543/4/6 548/4/6
f 544/3/6 545/3/6 550/3/6
f 545/4/6 546/4/6 551/4/6
f 550/3/6 545/3/6 551/3/6
f 551/4/6 546/4/6 552/4/6
f 548/3/6 549/3/6 553/3/6
f 547/3/6 548/3/6 553/3/6
f 553/3/6 549/3/6 554/3/6
f 551/3/6 552/3/6 555/3/6
f 555/3/6 552/3/6 556/3/6
f 547/3/6 553/3/6 557/3/6
f 557/3/6 553/3/6 558/3/6
f 555/4/6 556/4/6 561/4/6
f 561/4/6 556/4/6 562/4/6
f 558/3/6 559/3/6 563/3/6
f 559/4/6 560/4/6 564/4/6
f 563/3/6 559/3/6 564/3/6
f 564/4/6 560/4/6 565/4/6
f 566/4/6 567/4/6 568/4/6
f 568/4/6 567/4/6 569/4/6
f 569/4/6 567/4/6 570/4/6
f 570/3/6 571/3/6 573/3/6
f 569/3/6 570/3/6 573/3/6
f 572/4/6 573/4/6 574/4/6
f 573/3/6 571/3/6 575/3/6
f 574/4/6 573/4/6 575/4/6
f 575/3/6 571/3/6 576/3/6
